# xmcd
#
# Track frame offsets:
#	150
#	10812
#	23237
#	38317
#	51392
#	64523
#	74571
#	87996
#	102206
#	116676
#	130854
#	143627
#
# Disc length: 2081 seconds
#
# Revision: 1
# Processed by: cddbd v1.5.2PL0 Copyright (c) Steve Scherf et al.
# Submitted via: EZCDAudioConverter 7.0.0.1
#
DISCID=9c081f0c
DTITLE=J. Hearthill Trinity - Skeleton Stomp
DYEAR=2016
DGENRE=blues
TTITLE0=Skeleton Stomp
TTITLE1=Helsinki To Chicago
TTITLE2=Ghost On The Avenue
TTITLE3=Black Wings
TTITLE4=Completely Gone
TTITLE5=Lady Doom
TTITLE6=Surreal World
TTITLE7=True Love
TTITLE8=Sleepy Fields
TTITLE9=One Day I’ll Follow
TTITLE10=Flawless
TTITLE11=The Emperor of Emptiness
EXTD=
EXTT0=
EXTT1=
EXTT2=
EXTT3=
EXTT4=
EXTT5=
EXTT6=
EXTT7=
EXTT8=
EXTT9=
EXTT10=
EXTT11=
PLAYORDER=
